<?xml version="1.0" encoding="UTF-8"?>
<svg id="b"
  xmlns="http://www.w3.org/2000/svg"
  xmlns:xlink="http://www.w3.org/1999/xlink" viewBox="0 0 1292 153.01">
  <defs>
    <style>.d{fill:url(#c);}</style>
    <linearGradient id="c" x1="0" y1="76.5" x2="1292" y2="76.5" gradientUnits="userSpaceOnUse">
      <stop offset="0" stop-color="#3c4398"/>
      <stop offset="1" stop-color="#000"/>
    </linearGradient>
  </defs>
  <path class="d" d="m5.37,151.22S0,154.8,0,142.27L91.26,2.69h29.1l92.59,139.58s6.56,9.89-9.25,9.42l-25.41.02L107.15,42.49l-71.49,109.22-30.29-.49ZM227.26,6.27v139.5s3.49,6.43,6.22,5.94h25.14s6.22-.49,6.22-5.86V6.27s0-5.37-7.16-5.37h-23.66s-6.77,1.79-6.77,5.37Zm67.97,146.74h25.41c3.91,0,5.04-8.95,5.04-8.95V47.43l114.37,105.58h28.79c3.58-1.79,5.37-7.16,5.37-7.16V6.27c0-3.58-4.1-5.37-4.1-5.37h-26.23c-5.28,0-7.25,7.16-7.25,7.16v98.42L324.74.9h-28.96c-6.64,1.79-7.68,7.16-7.68,7.16v137.79c0,5.37,7.13,7.16,7.13,7.16Zm399.08-118.11c8.95,0,8.95,7.16,8.95,7.16l-.89,34c.89,1.79-6.26,5.37-6.26,5.37h-84.11l72.16,69.79h53.1l-39.37-37.58c42.95,1.79,42.95-31.46,42.95-31.46v-45.49c0-30.42-31-35.79-31-35.79h-142.58c-5.37,1.79-7.16,6.1-7.16,6.1v27.9h134.21Zm261.26,1.79v78.81s-.86,34.46-34.43,35.98l-117.97-.27s-35.49,5.37-39.07-32.21V31.32s1.83-26.84,35.81-30.42h116.88s36.99,0,38.78,35.79Zm-37.58,7.25s0-9.03-7.16-9.03h-102s-5.37,0-8.95,7.16v69.23s1.79,5.93,8.95,7.72h101.54s7.62,1.79,7.62-7.16V43.94Zm68,107.28h22.81s5.82,0,5.82-5.37v-21.47s0-5.37-7.16-5.37l-21.47-.45s-3.58.45-5.37,5.82v21.78s1.79,5.06,5.37,5.06ZM499.16,5.37v139.5s3.49,6.43,6.22,5.94h25.14s6.22-.49,6.22-5.86V5.37s0-5.37-7.16-5.37h-23.66s-6.77,1.79-6.77,5.37Zm538.41,1.09v139.5s3.49,6.43,6.22,5.94h25.14s6.22-.49,6.22-5.86V6.46s0-5.37-7.16-5.37h-23.66s-6.77,1.79-6.77,5.37Zm254.42,30.23v78.81s-.86,34.46-34.43,35.98l-117.97-.27s-35.49,5.37-39.07-32.21V31.32s1.83-26.84,35.81-30.42h116.88s36.99,0,38.78,35.79Zm-37.58,7.25s0-9.03-7.16-9.03h-102s-5.37,0-8.95,7.16v69.23s1.79,5.93,8.95,7.72h101.54s7.62,1.79,7.62-7.16V43.94Z"/>
</svg>
