<?xml version="1.0" standalone="no"?>
<!DOCTYPE svg PUBLIC "-//W3C//DTD SVG 20010904//EN" "http://www.w3.org/TR/2001/REC-SVG-20010904/DTD/svg10.dtd">
<svg
  version="1.0"
  xmlns="http://www.w3.org/2000/svg"
  width="600.000000pt"
  height="600.000000pt"
  viewBox="0 0 600.000000 600.000000"
  preserveAspectRatio="xMidYMid meet">
  <g transform="translate(0.000000,600.000000) scale(0.100000,-0.100000)" fill="#000000" stroke="none">
    <path d="M745 5985 c-194 -36 -352 -122 -491 -267 -116 -121 -184 -243 -230 -414 -18 -66 -19 -150 -19 -2304 0 -2161 1 -2237 19 -2305 49 -180 129 -317 258 -441 121 -116 243 -184 414 -230 66 -18 150 -19 2304 -19 2154 0 2238 1 2304 19 171 46 293 114 414 230 129 124 209 261 258 441 18 68 19 144 19 2305 0 2161 -1 2237 -19 2305 -49 180 -129 317 -259 442 -117 112 -234 178 -412 230 -57 17 -187 18 -2275 20 -1790 1 -2228 -1 -2285 -12z"/>
  </g>
</svg>
