<?xml version="1.0" encoding="utf-8"?>
<!-- Generator: Adobe Illustrator 24.1.3, SVG Export Plug-In . SVG Version: 6.00 Build 0)  -->
<svg version="1.1" xmlns="http://www.w3.org/2000/svg" xmlns:xlink="http://www.w3.org/1999/xlink" x="0px" y="0px"
	 viewBox="0 0 1000 800" style="enable-background:new 0 0 1000 800;" xml:space="preserve">
<style type="text/css">
	.st0{fill:#8DC838;}
	.st1{fill:url(#SVGID_1_);}
	.st2{font-family:'Microsoft-Yi-Baiti';}
	.st3{font-size:150.9603px;}
</style>
<g id="Layer_2">
</g>
<g id="Layer_3">
	<g>
		<g>
			<path class="st0" d="M588.39,496.38V374.5c1.3-0.43,2.62-0.73,3.88-1.31c8.51-3.94,14.98-10.94,18.22-19.75
				c3.24-8.8,2.85-18.34-1.08-26.84c-3.94-8.51-10.94-14.98-19.75-18.22c-18.17-6.66-38.38,2.67-45.06,20.83
				c-6.68,18.17,2.67,38.37,20.83,45.05c0.42,0.15,0.85,0.21,1.26,0.34v110.3l-83.46,56.83V288.56
				c9.87-3.23,18.24-10.74,22.09-21.22c3.24-8.8,2.85-18.33-1.08-26.84c-3.94-8.51-10.94-14.99-19.75-18.22
				c-18.14-6.66-38.37,2.67-45.06,20.84c-3.24,8.8-2.85,18.33,1.09,26.84c3.94,8.51,10.95,14.98,19.75,18.22
				c0.42,0.15,0.84,0.2,1.26,0.34v169.95l-64.09-31.42v-79.82c1.3-0.43,2.62-0.73,3.88-1.31c8.51-3.94,14.98-10.94,18.22-19.75
				c3.24-8.8,2.85-18.34-1.08-26.84c-3.94-8.51-10.94-14.98-19.75-18.22c-8.78-3.22-18.31-2.84-26.84,1.08
				c-8.51,3.94-14.98,10.94-18.21,19.74c-3.24,8.8-2.86,18.34,1.07,26.85c3.94,8.51,10.94,14.98,19.74,18.21
				c0.42,0.15,0.85,0.21,1.26,0.34v93.25l85.8,42.05v144.01h21.71V568L588.39,496.38z M564.96,336.71c1.99-5.41,7.14-8.78,12.6-8.78
				c1.53,0,3.09,0.27,4.61,0.83c6.93,2.54,10.49,10.26,7.94,17.19c-1.23,3.36-3.7,6.03-6.95,7.54c-3.25,1.49-6.88,1.65-10.25,0.4
				C565.98,351.35,562.41,343.63,564.96,336.71z M374.41,319.67c-1.5-3.25-1.65-6.88-0.4-10.25c1.99-5.41,7.12-8.77,12.58-8.77
				c1.53,0,3.09,0.27,4.61,0.83c6.93,2.54,10.49,10.26,7.94,17.19c-1.23,3.36-3.7,6.03-6.95,7.54c-3.25,1.49-6.89,1.65-10.25,0.4
				C378.6,325.38,375.92,322.91,374.41,319.67z M460.21,260.85c-1.5-3.24-1.65-6.88-0.42-10.23c2-5.42,7.14-8.78,12.6-8.78
				c1.53,0,3.09,0.27,4.61,0.83c3.36,1.23,6.03,3.7,7.53,6.95c1.5,3.25,1.65,6.89,0.41,10.25c-2.54,6.94-10.25,10.5-17.19,7.95
				C464.39,266.57,461.72,264.1,460.21,260.85z"/>
			<linearGradient id="SVGID_1_" gradientUnits="userSpaceOnUse" x1="84.4461" y1="335.6319" x2="909.6331" y2="335.6319">
				<stop  offset="0" style="stop-color:#005DB4"/>
				<stop  offset="0.2991" style="stop-color:#00FFFF"/>
				<stop  offset="0.6878" style="stop-color:#00FFFF"/>
				<stop  offset="1" style="stop-color:#005DB4"/>
			</linearGradient>
			<path class="st1" d="M710.51,266.15c-5.1-123.02-106.78-221.52-231.03-221.52c-107.38,0-200.84,74.56-225.14,178.35
				c-97.39,16.07-169.89,100.9-169.89,200.44c0,112.05,91.17,203.22,203.22,203.22h37.2V463.93c3.94-1.28,7.67-3.23,11.01-5.89
				c7.33-5.84,11.96-14.18,13.01-23.5c2.18-19.23-11.69-36.65-30.92-38.83c-19.3-2.24-36.65,11.7-38.83,30.92
				c-1.91,16.84,8.49,32.29,24.02,37.34v140.97h-15.49c-100.09,0-181.52-81.42-181.52-181.52c0-91.22,68.17-168.61,158.56-180.02
				l7.76-0.98l1.53-7.67c19.42-97.59,105.84-168.42,205.48-168.42c115.54,0,209.53,94,209.53,209.54v10.15l10.12,0.68
				c0.48,0.04,48.22,3.49,95.55,25.9c61.88,29.32,93.25,75.84,93.25,138.28c0,80.63-66.49,154.06-139.5,154.06h-76.78V488.6
				c4.76-1.21,9.29-3.31,13.25-6.47c7.33-5.84,11.96-14.18,13.01-23.5c1.06-9.31-1.58-18.48-7.42-25.82
				c-5.84-7.33-14.18-11.96-23.5-13.01c-19.3-2.26-36.65,11.7-38.83,30.92c-1.81,15.99,7.55,30.59,21.78,36.36v139.56h98.49
				c85.88,0,161.2-82.13,161.2-175.76C909.63,302.76,752.05,271.74,710.51,266.15z M300.7,429.07c0.78-6.83,6.59-11.88,13.31-11.88
				c0.5,0,1,0.03,1.51,0.08c7.33,0.84,12.63,7.49,11.8,14.82c-0.4,3.55-2.17,6.74-4.97,8.97c-2.8,2.23-6.27,3.23-9.86,2.83
				C305.17,443.06,299.87,436.41,300.7,429.07z M649.72,453.16c0.78-6.83,6.59-11.88,13.31-11.88c0.5,0,1,0.03,1.51,0.08
				c3.55,0.41,6.74,2.17,8.97,4.97c2.23,2.81,3.24,6.3,2.83,9.86c-0.4,3.55-2.17,6.74-4.97,8.97c-2.8,2.23-6.27,3.25-9.86,2.83
				C654.19,467.15,648.9,460.51,649.72,453.16z"/>
			<g>
				<path class="st0" d="M398.69,494.03c-8.78-3.21-18.31-2.84-26.84,1.08c-8.51,3.94-14.98,10.94-18.21,19.74
					c-3.24,8.8-2.86,18.34,1.07,26.85c3.94,8.51,10.94,14.98,19.75,18.22c0.42,0.15,0.84,0.2,1.26,0.34v66.38h21.71v-66.33
					c9.87-3.22,18.24-10.74,22.09-21.22c3.24-8.8,2.85-18.34-1.08-26.84C414.5,503.73,407.49,497.26,398.69,494.03z M399.14,531.59
					c-2.54,6.92-10.28,10.49-17.18,7.96c-3.36-1.24-6.04-3.71-7.54-6.96c-1.5-3.24-1.65-6.88-0.41-10.25
					c1.99-5.41,7.12-8.77,12.58-8.77c1.53,0,3.09,0.27,4.61,0.83C398.13,516.95,401.69,524.66,399.14,531.59z"/>
				<path class="st0" d="M593.84,535.3c-18.18-6.66-38.39,2.66-45.06,20.84c-3.24,8.8-2.85,18.33,1.09,26.84
					c3.94,8.51,10.95,14.98,19.75,18.22c0.41,0.15,0.84,0.2,1.26,0.34v25.11h21.71v-25.23c1.29-0.43,2.62-0.73,3.87-1.31
					c8.51-3.94,14.99-10.94,18.22-19.74C621.35,562.19,612.01,541.98,593.84,535.3z M594.29,572.87c-1.23,3.36-3.7,6.03-6.95,7.53
					c-3.26,1.5-6.9,1.65-10.25,0.41c-3.36-1.23-6.03-3.7-7.54-6.95c-1.5-3.24-1.65-6.88-0.41-10.24c1.99-5.41,7.13-8.78,12.58-8.78
					c1.53,0,3.09,0.27,4.61,0.83C593.28,558.22,596.85,565.93,594.29,572.87z"/>
			</g>
		</g>
		<g>
			<text transform="matrix(1 0 0 1 80.4983 735.4956)" class="st2 st3">Server Gardens</text>
		</g>
	</g>
</g>
</svg>
