<svg id="Layer_1" data-name="Layer 1" xmlns="http://www.w3.org/2000/svg" viewBox="0 0 698.67 104.72">
  <defs>
    <style>.cls-1{fill:#111;}</style>
  </defs>
  <path class="cls-1" d="M942.86,588.46a28.84,28.84,0,0,0,11.87-1.91,29.68,29.68,0,0,0,9.61-6,29.27,29.27,0,0,0,6.46-9.06,26.48,26.48,0,0,0,2.41-11.17,26.79,26.79,0,0,0-2.34-11.11,28.36,28.36,0,0,0-6.34-8.94,30.88,30.88,0,0,0-9.29-6,28,28,0,0,0-3.48-1.2l.71-2.92-21.86,6.41,16.48,15.72.86-3.51c.33.1.67.21,1,.34a12.18,12.18,0,0,1,4.06,2.57,13.09,13.09,0,0,1,2.77,3.94,11,11,0,0,1,1,4.71,10.38,10.38,0,0,1-1,4.61,12.94,12.94,0,0,1-6.88,6.56,13,13,0,0,1-5,1H889.65a8.29,8.29,0,0,0-6,2.38,8,8,0,0,0-2.5,5.95v7.68Z" transform="translate(-610.67 -487.64)"/>
  <path class="cls-1" d="M737.55,575.64q-4.34-8.11-9.53-17.72T717.31,538q-5.52-10.37-10.49-19.8T697.7,501q-4.14-7.71-6.52-12.06l-.69-1.26h-9.27a14,14,0,0,0-7.09,1.87,13.64,13.64,0,0,0-5.14,5.32c-.17.33-1.88,3.27-2.53,4.37l-6.3,10.86-8.69,15q-4.82,8.32-9.93,17t-9.95,17L623,574q-3.78,6.52-6.1,10.59c-1.51,2.66-2,3.56-2.23,3.86l-4,4H629a5.47,5.47,0,0,0,5.19-3.06c.28-.44,1.08-1.76,3.67-6.1q3.43-5.75,9.81-16.46t15.48-26.2q8.24-14,18.54-31.39l25.16,47.2q3.23,6,7.5,13.94c2.91,5.41,5.9,11,8.92,16.79a10.18,10.18,0,0,0,3.83,3.9,10,10,0,0,0,5.12,1.38h14.23l-1.87-3.54Q741.91,583.78,737.55,575.64Z" transform="translate(-610.67 -487.64)"/>
  <path class="cls-1" d="M798.32,490.24a8.55,8.55,0,0,0-2.7,6.29v95.83h9.14a9,9,0,0,0,6.43-2.57,8.44,8.44,0,0,0,2.7-6.28V487.67h-9.13A9,9,0,0,0,798.32,490.24Z" transform="translate(-610.67 -487.64)"/>
  <path class="cls-1" d="M1078.16,519.65a8.62,8.62,0,0,0-2.7,6.43v66.28h9.14a9,9,0,0,0,6.43-2.57,8.44,8.44,0,0,0,2.7-6.28V517.09h-9.13A9,9,0,0,0,1078.16,519.65Z" transform="translate(-610.67 -487.64)"/>
  <path class="cls-1" d="M1037.86,490.27a8.57,8.57,0,0,0-2.59,6.26V505h89.67a9,9,0,0,0,6.43-2.56,8.47,8.47,0,0,0,2.7-6.29v-8.44h-89.81A8.77,8.77,0,0,0,1037.86,490.27Z" transform="translate(-610.67 -487.64)"/>
  <path class="cls-1" d="M1307.47,588.82q-2.67-5-7-13.18t-9.53-17.72q-5.19-9.58-10.71-19.95t-10.5-19.8q-5-9.48-9.11-17.18t-6.52-12.06l-.69-1.26h-9.27a13.94,13.94,0,0,0-7.09,1.87,13.57,13.57,0,0,0-5.14,5.32c-.17.33-1.89,3.27-2.53,4.37q-2.46,4.22-6.31,10.86l-8.68,15q-4.83,8.32-9.94,17t-10,17L1185.88,574q-3.8,6.52-6.11,10.59c-1.49,2.63-2,3.54-2.22,3.85l-4,4h18.34a5.49,5.49,0,0,0,5.2-3.06c.27-.43,1.07-1.75,3.67-6.1q3.42-5.75,9.8-16.46t15.49-26.2q8.24-14,18.54-31.39l25.15,47.2q3.23,6,7.5,13.94c2.87,5.33,5.86,11,8.92,16.79A10.33,10.33,0,0,0,1290,591a10,10,0,0,0,5.13,1.38h14.22Z" transform="translate(-610.67 -487.64)"/>
  <path class="cls-1" d="M906.27,487.67a31.23,31.23,0,0,0-12.83,2.06A31.3,31.3,0,0,0,876.1,506a29.55,29.55,0,0,0-.08,24.06,30.52,30.52,0,0,0,6.84,9.66,33.42,33.42,0,0,0,10,6.49,30.72,30.72,0,0,0,3.75,1.29l-.76,3.16,23.6-6.92-17.79-17-.93,3.8c-.36-.11-.72-.23-1.08-.37a13.37,13.37,0,0,1-4.39-2.78,14.16,14.16,0,0,1-3-4.26,11.84,11.84,0,0,1-1.11-5.07,11.32,11.32,0,0,1,1.1-5,14.47,14.47,0,0,1,3-4.21,14.28,14.28,0,0,1,4.44-2.87,14,14,0,0,1,5.44-1.07h58.55a8.93,8.93,0,0,0,6.43-2.57,8.6,8.6,0,0,0,2.7-6.42v-8.3Z" transform="translate(-610.67 -487.64)"/>
  <circle class="cls-1" cx="71" cy="69.25" r="8.93"/>
  <circle class="cls-1" cx="633.91" cy="69.25" r="8.93"/>
</svg>
